<svg xmlns="http://www.w3.org/2000/svg" width="12" height="12" viewBox="0 0 12 12"><defs><style>.a{fill:none;}.b{fill:currentColor;}</style></defs><g transform="translate(12) rotate(90)"><g transform="translate(-10 288) rotate(-90)"><rect class="a" width="12" height="12" transform="translate(276 10)"/><path class="b" d="M19056.857,20530.053l-3.957-3.961a.2.2,0,0,1,0-.285l.422-.422a.194.194,0,0,1,.283,0l3.4,3.391,3.391-3.391a.194.194,0,0,1,.283,0l.428.422a.206.206,0,0,1,0,.285l-3.535,3.533-.428.428a.194.194,0,0,1-.139.059A.211.211,0,0,1,19056.857,20530.053Z" transform="translate(-18775 -20511.242)"/></g></g></svg>