<svg xmlns="http://www.w3.org/2000/svg" width="24" height="24" viewBox="0 0 24 24"><defs><style>.a,.b{fill:rgba(22,35,61,0.65);}.a{opacity:0;}</style></defs><g transform="translate(-87 -932)"><rect class="a" width="24" height="24" transform="translate(87 932)"/><path class="b" d="M1315.133,22a2.015,2.015,0,0,1-1.716-.971l-1.8-3a2,2,0,0,1,0-2.058l1.8-3a2.014,2.014,0,0,1,1.716-.971h3.736a2.011,2.011,0,0,1,1.715.971l1.8,3a1.994,1.994,0,0,1,0,2.058l-1.8,3a2.013,2.013,0,0,1-1.715.971Zm-.43-7.555-1.332,2a1,1,0,0,0,0,1.11l1.332,2a1,1,0,0,0,.832.445h2.932a1,1,0,0,0,.831-.445l1.335-2a1,1,0,0,0,0-1.11l-1.335-2a1,1,0,0,0-.831-.445h-2.932A1,1,0,0,0,1314.7,14.446ZM1310.713,20H1301a2,2,0,0,1-2-2V10a2,2,0,0,1,2-2h1V4a4,4,0,0,1,4-4h6a4,4,0,0,1,4,4V8h-2V4a2,2,0,0,0-2-2h-6a2,2,0,0,0-2,2V8h13a2,2,0,0,1,2,2h-17a1,1,0,0,0-1,1v6a1,1,0,0,0,1,1h7.573l1.142,2h0ZM1316,17a1,1,0,1,1,1,1A1,1,0,0,1,1316,17Zm-8-2V13a1,1,0,0,1,2,0v2a1,1,0,0,1-2,0Z" transform="translate(-1212.001 933)"/></g></svg>