<svg xmlns="http://www.w3.org/2000/svg" width="24" height="24" viewBox="0 0 24 24"><defs><style>.a,.b{fill:rgba(22,35,61,0.65);}.a{opacity:0;}</style></defs><g transform="translate(-87 -932)"><rect class="a" width="24" height="24" transform="translate(87 932)"/><path class="b" d="M1208,32h-8a2,2,0,0,1-2-2V14a2,2,0,0,1,2-2h8v2h-7a1,1,0,0,0-1,1V29a1,1,0,0,0,1,1h7v2h0Zm4.794-5.808a1,1,0,0,1,0-1.414L1214.571,23H1205a1,1,0,0,1,0-2h9.671l-1.878-1.879a1,1,0,0,1,1.414-1.414l3.536,3.535a1.065,1.065,0,0,1-.144,1.559l-3.392,3.391a1,1,0,0,1-1.414,0Z" transform="translate(-1109 922)"/></g></svg>