<svg xmlns="http://www.w3.org/2000/svg" width="24" height="24" viewBox="0 0 24 24"><defs><style>.a,.b{fill:currentColor;}.a{opacity:0;}</style></defs><g transform="translate(-1668 -23)"><g transform="translate(151 5.007)"><rect class="a" width="24" height="24" transform="translate(1517 17.993)"/><path class="b" d="M12,2A10,10,0,1,1,2,12,10,10,0,0,1,12,2Zm4,10.878a1.281,1.281,0,0,0-1.542-.753c-1.791.284-1.989.6-2.075,1.113l-.024.157-.024.165c-.1.683-.094.941.22,1.271a12.3,12.3,0,0,1,2.253,2.844,3.333,3.333,0,0,1,.2,1.918,8.185,8.185,0,0,0,3.152-2.237,4.948,4.948,0,0,0,.19-1.4v-.1c0-.923,0-1.343-.652-1.716-.275-.156-.48-.25-.645-.325a1.839,1.839,0,0,1-.938-.757C16.081,12.993,16.042,12.936,16,12.878ZM12,3.833A8.143,8.143,0,0,0,6.1,6.349a1.261,1.261,0,0,1,.437.534,3.188,3.188,0,0,1,.2,1.345,2.166,2.166,0,0,0,.1.865c.145.308.766.439,1.316.554.2.041.4.083.582.134a2.753,2.753,0,0,1,1.211.959,2.764,2.764,0,0,0,.419.43,1.019,1.019,0,0,0,.292-.5.586.586,0,0,0-.046-.519,2.927,2.927,0,0,1-.356-2.4c.272-.739,1.123-.684,1.744-.644a3.63,3.63,0,0,0,.614.009c.623-.078.814-1.024.949-1.21a8.881,8.881,0,0,1,1.741-1.375A8.138,8.138,0,0,0,12,3.833Z" transform="translate(1517 17.993)"/></g></g></svg>