<svg xmlns="http://www.w3.org/2000/svg" width="16.001" height="16" viewBox="0 0 16.001 16"><defs><style>.a,.b{fill:currentColor;}.a{opacity:0;}</style></defs><g transform="translate(-5869 11662)"><rect class="a" width="16" height="16" transform="translate(5869 -11662)"/><path class="b" d="M13245,1650a1,1,0,0,1-1-1v-11a1,1,0,0,1,1-1h5a1,1,0,0,1,1,1v11a1,1,0,0,1-1,1Zm8-2a1,1,0,0,1-1-1v-7a1,1,0,0,1,1-1h1a1,1,0,0,1,1,1v7a1,1,0,0,1-1,1Zm-12,0a1,1,0,0,1-1-1v-7a1,1,0,0,1,1-1h1a1,1,0,0,1,1,1v7a1,1,0,0,1-1,1Z" transform="translate(-7370 -13297)"/></g></svg>