<svg xmlns="http://www.w3.org/2000/svg" width="16.001" height="16" viewBox="0 0 16.001 16"><defs><style>.a{fill:#fff;opacity:0;}.b{fill:currentColor;}</style></defs><g transform="translate(-5869 10795)"><rect class="a" width="16" height="16" transform="translate(5869 -10795)"/><path class="b" d="M2.8,3H17.2a.8.8,0,0,1,.8.8V16.6a.8.8,0,0,1-.8.8H2.8a.8.8,0,0,1-.8-.8V3.8A.8.8,0,0,1,2.8,3Zm8,8v-.8h2.4V8.6H11.136l1.7-1.7L11.7,5.774,10,7.471l-1.7-1.7L7.176,6.906l1.7,1.7H6.8v1.6H9.2V11H6.8v1.6H9.2v1.6h1.6V12.6h2.4V11Z" transform="translate(5866.996 -10797.203)"/></g></svg>