<svg xmlns="http://www.w3.org/2000/svg" width="16.004" height="15.998" viewBox="0 0 16.004 15.998"><defs><style>.a{fill:currentColor;}</style></defs><g transform="translate(-5869 10797.001)"><path class="a" d="M21243,10912v-2h1.7l.432-1.6h-4.324a.8.8,0,0,1-.8-.8l1-10.8a.808.808,0,0,1,.8-.8h12.4a.8.8,0,0,1,.8.8l1,10.8a.8.8,0,0,1-.8.8h-4.59l.43,1.6H21253v2Zm5.975-2-.43-1.6h-1.348l-.428,1.6Zm-3.771-4.6h2v1.6h1.6v-1.6h.8a2,2,0,1,0,0-4h-3.2a.4.4,0,1,1,0-.795h4.4v-1.6h-2v-1.6h-1.6v1.6h-.8a2,2,0,1,0,0,4h3.2a.4.4,0,1,1,0,.795h-4.4Z" transform="translate(-15371 -21693)"/></g></svg>