<svg xmlns="http://www.w3.org/2000/svg" width="24" height="24" viewBox="0 0 24 24"><defs><style>.a,.b{fill:currentColor;}.a{opacity:0;}</style></defs><g transform="translate(-757.003 3515.999)"><rect class="a" width="24" height="24" rx="8" transform="translate(757.003 -3515.999)"/><path class="b" d="M17.2,9.717V17.2a.8.8,0,0,1-.8.8H3.6a.8.8,0,0,1-.8-.8V9.717A3.188,3.188,0,0,1,2,7.6V2.8A.8.8,0,0,1,2.8,2H17.2a.8.8,0,0,1,.8.8V7.6A3.188,3.188,0,0,1,17.2,9.717ZM11.6,7.6a.8.8,0,0,1,1.6,0,1.6,1.6,0,0,0,3.2,0v-4H3.6v4a1.6,1.6,0,0,0,3.2,0,.8.8,0,1,1,1.6,0,1.6,1.6,0,0,0,3.2,0Z" transform="translate(759.003 -3513.999)"/></g></svg>