<svg xmlns="http://www.w3.org/2000/svg" width="16" height="16" viewBox="0 0 16 16"><defs><style>.a,.b{fill:currentColor;}.a{opacity:0;}</style></defs><g transform="translate(-5869 11622)"><rect class="a" width="16" height="16" transform="translate(5869 -11622)"/><path class="b" d="M15.6,18H4.4A2.4,2.4,0,0,1,2,15.6V2.8A.8.8,0,0,1,2.8,2H14a.8.8,0,0,1,.8.8v9.6H18v3.2A2.4,2.4,0,0,1,15.6,18Zm-.8-4v1.6a.8.8,0,1,0,1.6,0V14ZM5.2,6V7.6h6.4V6Zm0,3.2v1.6h6.4V9.2Zm0,3.2V14h4V12.4Z" transform="translate(5867 -11624)"/></g></svg>