<svg xmlns="http://www.w3.org/2000/svg" width="16.001" height="16" viewBox="0 0 16.001 16"><defs><style>.a{fill:#fff;opacity:0;}.b{fill:currentColor;}</style></defs><g transform="translate(-5869 10975)"><rect class="a" width="16" height="16" transform="translate(5869 -10975)"/><path class="b" d="M11.187,2a2.91,2.91,0,0,1,2.519,4.364H17V7.821H15.55v7.273a.727.727,0,0,1-.727.727H3.187a.727.727,0,0,1-.727-.727V7.821H1V6.366H4.3a2.909,2.909,0,0,1,4.7-3.379A2.9,2.9,0,0,1,11.187,2ZM9.732,7.821H8.278v7.273H9.732ZM6.823,3.457a1.455,1.455,0,0,0-.109,2.905l.109,0H8.278V4.912A1.455,1.455,0,0,0,7.043,3.474l-.112-.013Zm4.364,0A1.455,1.455,0,0,0,9.736,4.8l0,.109V6.366h1.455A1.455,1.455,0,0,0,12.637,5.02l0-.109A1.455,1.455,0,0,0,11.187,3.457Z" transform="translate(5867.996 -10975.912)"/></g></svg>