<svg xmlns="http://www.w3.org/2000/svg" width="16" height="16" viewBox="0 0 16 16"><defs><style>.a{fill:#fff;opacity:0;}.b{fill:currentColor;}</style></defs><g transform="translate(-5869 11335)"><rect class="a" width="16" height="16" transform="translate(5869 -11335)"/><path class="b" d="M10.6,3.7a4.175,4.175,0,0,0,5.7,5.7V14.13a.693.693,0,0,1-.7.7H1.7a.7.7,0,0,1-.7-.7V4.392a.693.693,0,0,1,.7-.7Zm3.616,4.87A2.783,2.783,0,1,1,17,5.783,2.783,2.783,0,0,1,14.217,8.565Zm0-1.391a1.391,1.391,0,1,0-1.391-1.391A1.391,1.391,0,0,0,14.217,7.174Zm-.7,4.174v2.087h1.391V11.348Z" transform="translate(5868 -11335.913)"/></g></svg>