<svg xmlns="http://www.w3.org/2000/svg" width="16" height="16" viewBox="0 0 16 16"><defs><style>.a,.b{fill:currentColor;}.a{opacity:0;}</style></defs><g transform="translate(-5869 11046)"><rect class="a" width="16" height="16" transform="translate(5869 -11046)"/><path class="b" d="M2,8.2V3.8A.8.8,0,0,1,2.8,3H17.2a.8.8,0,0,1,.8.8V8.2a2,2,0,0,0,0,4v4.4a.8.8,0,0,1-.8.8H2.8a.8.8,0,0,1-.8-.8V12.2a2,2,0,0,0,0-4Zm5.6-.4V9.4h4.8V7.8Zm0,3.2v1.6h4.8V11Z" transform="translate(5866.995 -11048.2)"/></g></svg>