<svg xmlns="http://www.w3.org/2000/svg" width="16" height="16" viewBox="0 0 16 16"><defs><style>.a{fill:#fff;opacity:0;}.b{fill:currentColor;}</style></defs><g transform="translate(-5869 11006)"><rect class="a" width="16" height="16" transform="translate(5869 -11006)"/><path class="b" d="M9.2,17.4a1.2,1.2,0,0,0-2.4,0h-4a.8.8,0,0,1-.8-.8V3.8A.8.8,0,0,1,2.8,3h4A1.2,1.2,0,0,0,9.2,3h8a.8.8,0,0,1,.8.8V8.2a2,2,0,0,0,0,4v4.4a.8.8,0,0,1-.8.8ZM8,9A1.2,1.2,0,1,0,6.8,7.8,1.2,1.2,0,0,0,8,9Zm0,4.8a1.2,1.2,0,1,0-1.2-1.2A1.2,1.2,0,0,0,8,13.8Z" transform="translate(5866.995 -11008.2)"/></g></svg>