<svg xmlns="http://www.w3.org/2000/svg" width="24" height="24" viewBox="0 0 24 24"><defs><style>.a,.b{fill:currentColor;}.a{opacity:0;}</style></defs><g transform="translate(-757 3516)"><rect class="a" width="24" height="24" rx="8" transform="translate(757 -3516)"/><path class="b" d="M8.4,16.2V13.52a2.642,2.642,0,0,1,1.973-2.294,6.812,6.812,0,0,0-6.411.9A6.414,6.414,0,0,0,8.4,16.2Zm7.1-2.93a3.7,3.7,0,0,0-2.7-.869c-1.6,0-2.8.637-2.8,1.12V16.4A6.4,6.4,0,0,0,15.5,13.269ZM8.04,9.6a1.8,1.8,0,1,0-1.8-1.8A1.8,1.8,0,0,0,8.04,9.6Zm4.76.8a1.6,1.6,0,1,0-1.6-1.6A1.6,1.6,0,0,0,12.8,10.4ZM10,18a8,8,0,1,1,8-8A8,8,0,0,1,10,18Z" transform="translate(759.003 -3513.999)"/></g></svg>