<svg xmlns="http://www.w3.org/2000/svg" width="16" height="16" viewBox="0 0 16 16"><defs><style>.a{fill:#fff;opacity:0;}.b{fill:currentColor;}</style></defs><g transform="translate(-5869 11155)"><rect class="a" width="16" height="16" transform="translate(5869 -11155)"/><path class="b" d="M12.667,1a.762.762,0,0,1,.762.762v.762h3.81V7.1H15.7l2.092,5.748A3.048,3.048,0,1,1,12,14.714H8.761a3.048,3.048,0,0,1-5.942-.172A1.524,1.524,0,0,1,2,13.19V5.571a.762.762,0,0,1,.762-.762H8.1a.762.762,0,0,1,.762.762v3.81a.762.762,0,0,0,.762.762h1.524a.762.762,0,0,0,.762-.762V2.524H9.619V1Zm2.286,11.429a1.522,1.522,0,1,0,1.432,1l-.012-.033A1.524,1.524,0,0,0,14.952,12.429Zm-9.143,0a1.524,1.524,0,1,0,1.524,1.524A1.524,1.524,0,0,0,5.81,12.429Zm1.524-6.1H3.524V7.857h3.81Zm8.381-2.286H13.429V5.571h2.286Z" transform="translate(5867 -11156)"/></g></svg>