<svg xmlns="http://www.w3.org/2000/svg" width="16" height="16" viewBox="0 0 16 16"><defs><style>.a,.b{fill:currentColor;}.a{opacity:0;}</style></defs><g transform="translate(-5869 10758)"><rect class="a" width="16" height="16" transform="translate(5869 -10758)"/><path class="b" d="M21248.422,11256.414a1.02,1.02,0,0,1-.707-.293l-1.758-1.758h-2.5a1,1,0,0,1-1-1v-2.5l-1.75-1.738a1.014,1.014,0,0,1,0-1.414l1.75-1.746v-2.5a1,1,0,0,1,1-1h2.5l1.758-1.754a.961.961,0,0,1,.7-.293.986.986,0,0,1,.711.293l1.754,1.754h2.473a1,1,0,0,1,1,1v2.48l1.766,1.766a1,1,0,0,1,0,1.414l-1.766,1.766v2.473a1,1,0,0,1-1,1h-2.473l-1.754,1.758A1.064,1.064,0,0,1,21248.422,11256.414Zm-1.922-5.871h0l1.066,1.055a.478.478,0,0,0,.707,0,.5.5,0,0,0,0-.707l-1.066-1.066.746-.734a2.5,2.5,0,0,0,3.152-3.852,2.49,2.49,0,0,0-3.539,0,2.508,2.508,0,0,0-.32,3.145l-2.512,2.508a.506.506,0,0,0,.359.859.47.47,0,0,0,.348-.152l1.059-1.055Zm2.836-2.043a1.5,1.5,0,0,1,0-3,1.512,1.512,0,0,1,1.066.441,1.5,1.5,0,0,1-1.062,2.555Z" transform="translate(-15371.419 -21998.418)"/></g></svg>