<svg xmlns="http://www.w3.org/2000/svg" width="16" height="16" viewBox="0 0 16 16"><defs><style>.a,.b{fill:currentColor;}.a{opacity:0;}</style></defs><g transform="translate(-5869 10758)"><rect class="a" width="16" height="16" transform="translate(5869 -10758)"/><path class="b" d="M10.331,4.6H17.2a.8.8,0,0,1,.8.8V16.6a.8.8,0,0,1-.8.8H2.8a.8.8,0,0,1-.8-.8V3.8A.8.8,0,0,1,2.8,3H8.731ZM10,11A2,2,0,1,0,8,9,2,2,0,0,0,10,11ZM6.8,15h6.4a3.2,3.2,0,1,0-6.4,0Z" transform="translate(5867 -10760.2)"/></g></svg>