<svg xmlns="http://www.w3.org/2000/svg" width="16.002" height="16.004" viewBox="0 0 16.002 16.004"><defs><style>.a{fill:#fff;opacity:0;}.b{fill:currentColor;}</style></defs><g transform="translate(-5868.998 10895)"><rect class="a" width="16" height="16" transform="translate(5869 -10895)"/><path class="b" d="M27786.6,2448h-11.2v-1.584h4.8v-2.762h-6.408a.791.791,0,0,1-.789-.792l1-10.07a.8.8,0,0,1,.795-.792h12.414a.8.8,0,0,1,.795.792l1,10.07a.8.8,0,0,1-.795.792h-6.41v2.762h4.8V2448Zm-3.6-13.039h0v5.923h3v-5.923h-3Zm-7,2.962h0v1.969h5v-1.969h-5Zm0-2.962h0v1.977h5v-1.977h-5Z" transform="translate(-21904 -13326.998)"/></g></svg>