<svg xmlns="http://www.w3.org/2000/svg" width="16" height="16" viewBox="0 0 16 16"><defs><style>.a,.b{fill:currentColor;}.a{opacity:0;}</style></defs><g transform="translate(-5869 10758)"><rect class="a" width="16" height="16" transform="translate(5869 -10758)"/><path class="b" d="M21247.232,13021.8h0l-6.428,0a.8.8,0,0,1-.8-.8v-11.2a.8.8,0,0,1,.8-.8h14.4a.8.8,0,0,1,.8.8v11.2a.8.8,0,0,1-.8.8h-.2v-2.4a1,1,0,0,0-1-1l-4-.8v-3.2a1,1,0,1,0-2,0v4.214l-1.029-1.264a1.224,1.224,0,0,0-1.031-.665.865.865,0,0,0-.436.115,1.126,1.126,0,0,0-.268,1.548l2,3.45Zm-4.035-7.2a.8.8,0,1,0,.8.8A.8.8,0,0,0,21243.2,13014.6Z" transform="translate(-15371 -23765.398)"/></g></svg>